<!-- SimulateAI Favicon -->
<!-- Copyright 2025 Armando Sori - Licensed under Apache License, Version 2.0 -->
<svg width="32" height="32" viewBox="0 0 32 32" xmlns="http://www.w3.org/2000/svg">
  <defs>
    <!-- Modern dark blue gradient for the spider chart -->
    <linearGradient id="radarGradient" x1="0%" y1="0%" x2="100%" y2="100%">
      <stop offset="0%" style="stop-color:#1976d2"/>
      <stop offset="50%" style="stop-color:#1565c0"/>
      <stop offset="100%" style="stop-color:#0d47a1"/>
    </linearGradient>
  </defs>
  
  <!-- Spider Chart Symbol -->
  <g transform="translate(16, 16)">
    <!-- Clean octagonal outline -->
    <polygon points="0,-13 9.19,-9.19 13,0 9.19,9.19 0,13 -9.19,9.19 -13,0 -9.19,-9.19" 
             fill="none" stroke="#1565c0" stroke-width="1" opacity="0.8"/>
    
    <!-- Middle ring - evenly spaced between outer and center -->
    <polygon points="0,-11 7.78,-7.78 11,0 7.78,7.78 0,11 -7.78,7.78 -11,0 -7.78,-7.78" 
             fill="none" stroke="#1565c0" stroke-width="0.8" opacity="0.5"/>
    
    <!-- Modern flat spokes -->
    <g stroke="#1565c0" stroke-width="1" opacity="0.7">
      <line x1="0" y1="0" x2="0" y2="-13"/>
      <line x1="0" y1="0" x2="9.19" y2="-9.19"/>
      <line x1="0" y1="0" x2="13" y2="0"/>
      <line x1="0" y1="0" x2="9.19" y2="9.19"/>
      <line x1="0" y1="0" x2="0" y2="13"/>
      <line x1="0" y1="0" x2="-9.19" y2="9.19"/>
      <line x1="0" y1="0" x2="-13" y2="0"/>
      <line x1="0" y1="0" x2="-9.19" y2="-9.19"/>
    </g>
    
    <!-- Central flat polygon with border -->
    <polygon points="0,-9 6.36,-6.36 9,0 6.36,6.36 0,9 -6.36,6.36 -9,0 -6.36,-6.36" 
             fill="url(#radarGradient)" stroke="#1565c0" stroke-width="1" opacity="0.9"/>
    
    <!-- Nodes at each octagonal point -->
    <g fill="#1a73e8">
      <circle cx="0" cy="-9" r="0.8"/>
      <circle cx="6.36" cy="-6.36" r="0.8"/>
      <circle cx="9" cy="0" r="0.8"/>
      <circle cx="6.36" cy="6.36" r="0.8"/>
      <circle cx="0" cy="9" r="0.8"/>
      <circle cx="-6.36" cy="6.36" r="0.8"/>
      <circle cx="-9" cy="0" r="0.8"/>
      <circle cx="-6.36" cy="-6.36" r="0.8"/>
    </g>
  </g>
</svg>
