<svg xmlns="http://www.w3.org/2000/svg" viewBox="0 0 200 200" role="img" aria-label="SimulateAI Logo">
  <defs>
    <linearGradient id="logoGradient" x1="0%" y1="0%" x2="100%" y2="100%">
      <stop offset="0%" style="stop-color:#007acc;stop-opacity:1" />
      <stop offset="100%" style="stop-color:#005a9e;stop-opacity:1" />
    </linearGradient>
  </defs>
  
  <!-- Brain/Circuit Design -->
  <circle cx="100" cy="100" r="80" fill="url(#logoGradient)" opacity="0.1"/>
  
  <!-- Neural Network Nodes -->
  <circle cx="100" cy="50" r="8" fill="url(#logoGradient)"/>
  <circle cx="70" cy="80" r="6" fill="url(#logoGradient)"/>
  <circle cx="130" cy="80" r="6" fill="url(#logoGradient)"/>
  <circle cx="60" cy="120" r="6" fill="url(#logoGradient)"/>
  <circle cx="100" cy="120" r="8" fill="url(#logoGradient)"/>
  <circle cx="140" cy="120" r="6" fill="url(#logoGradient)"/>
  <circle cx="100" cy="150" r="8" fill="url(#logoGradient)"/>
  
  <!-- Connections -->
  <line x1="100" y1="50" x2="70" y2="80" stroke="url(#logoGradient)" stroke-width="2" opacity="0.7"/>
  <line x1="100" y1="50" x2="130" y2="80" stroke="url(#logoGradient)" stroke-width="2" opacity="0.7"/>
  <line x1="70" y1="80" x2="60" y2="120" stroke="url(#logoGradient)" stroke-width="2" opacity="0.7"/>
  <line x1="70" y1="80" x2="100" y2="120" stroke="url(#logoGradient)" stroke-width="2" opacity="0.7"/>
  <line x1="130" y1="80" x2="100" y2="120" stroke="url(#logoGradient)" stroke-width="2" opacity="0.7"/>
  <line x1="130" y1="80" x2="140" y2="120" stroke="url(#logoGradient)" stroke-width="2" opacity="0.7"/>
  <line x1="60" y1="120" x2="100" y2="150" stroke="url(#logoGradient)" stroke-width="2" opacity="0.7"/>
  <line x1="100" y1="120" x2="100" y2="150" stroke="url(#logoGradient)" stroke-width="2" opacity="0.7"/>
  <line x1="140" y1="120" x2="100" y2="150" stroke="url(#logoGradient)" stroke-width="2" opacity="0.7"/>
  
  <!-- Ethics Symbol (Balance) -->
  <rect x="85" y="160" width="30" height="4" fill="url(#logoGradient)" rx="2"/>
  <line x1="100" y1="162" x2="100" y2="175" stroke="url(#logoGradient)" stroke-width="3"/>
  <circle cx="90" cy="158" r="3" fill="none" stroke="url(#logoGradient)" stroke-width="2"/>
  <circle cx="110" cy="158" r="3" fill="none" stroke="url(#logoGradient)" stroke-width="2"/>
</svg>
