<!-- SimulateAI Symbol Only - Dark Mode Inverted -->
<!-- Copyright 2025 Armando Sori - Licensed under Apache License, Version 2.0 -->
<svg width="64" height="64" viewBox="0 0 64 64" xmlns="http://www.w3.org/2000/svg">
  <defs>
    <!-- Light gradient for dark mode -->
    <linearGradient id="radarGradientDark" x1="0%" y1="0%" x2="100%" y2="100%">
      <stop offset="0%" style="stop-color:#90caf9"/>
      <stop offset="50%" style="stop-color:#64b5f6"/>
      <stop offset="100%" style="stop-color:#42a5f5"/>
    </linearGradient>
  </defs>
  
  <!-- Spider Chart Symbol -->
  <g transform="translate(32, 32)">
    <!-- Clean octagonal outline -->
    <polygon points="0,-26 18.38,-18.38 26,0 18.38,18.38 0,26 -18.38,18.38 -26,0 -18.38,-18.38" 
             fill="none" stroke="#90caf9" stroke-width="1.8" opacity="0.8"/>
    
    <!-- Middle ring - evenly spaced between outer and center -->
    <polygon points="0,-22 15.56,-15.56 22,0 15.56,15.56 0,22 -15.56,15.56 -22,0 -15.56,-15.56" 
             fill="none" stroke="#90caf9" stroke-width="1.5" opacity="0.5"/>
    
    <!-- Modern flat spokes -->
    <g stroke="#90caf9" stroke-width="1.8" opacity="0.7">
      <line x1="0" y1="0" x2="0" y2="-26"/>
      <line x1="0" y1="0" x2="18.38" y2="-18.38"/>
      <line x1="0" y1="0" x2="26" y2="0"/>
      <line x1="0" y1="0" x2="18.38" y2="18.38"/>
      <line x1="0" y1="0" x2="0" y2="26"/>
      <line x1="0" y1="0" x2="-18.38" y2="18.38"/>
      <line x1="0" y1="0" x2="-26" y2="0"/>
      <line x1="0" y1="0" x2="-18.38" y2="-18.38"/>
    </g>
    
    <!-- Central flat polygon with border -->
    <polygon points="0,-18 12.73,-12.73 18,0 12.73,12.73 0,18 -12.73,12.73 -18,0 -12.73,-12.73" 
             fill="url(#radarGradientDark)" stroke="#90caf9" stroke-width="1.8" opacity="0.9"/>
    
    <!-- Nodes at each octagonal point -->
    <g fill="#e3f2fd">
      <circle cx="0" cy="-18" r="1.5"/>
      <circle cx="12.73" cy="-12.73" r="1.5"/>
      <circle cx="18" cy="0" r="1.5"/>
      <circle cx="12.73" cy="12.73" r="1.5"/>
      <circle cx="0" cy="18" r="1.5"/>
      <circle cx="-12.73" cy="12.73" r="1.5"/>
      <circle cx="-18" cy="0" r="1.5"/>
      <circle cx="-12.73" cy="-12.73" r="1.5"/>
    </g>
  </g>
</svg>
