<!-- SimulateAI Square Logo -->
<!-- Copyright 2025 Armando Sori - Licensed under Apache License, Version 2.0 -->
<svg width="512" height="512" viewBox="0 0 512 512" xmlns="http://www.w3.org/2000/svg">
  <defs>
    <!-- Modern dark blue gradient for the spider chart -->
    <linearGradient id="radarGradient" x1="0%" y1="0%" x2="100%" y2="100%">
      <stop offset="0%" style="stop-color:#1976d2"/>
      <stop offset="50%" style="stop-color:#1565c0"/>
      <stop offset="100%" style="stop-color:#0d47a1"/>
    </linearGradient>
  </defs>
  
  <!-- Spider Chart Symbol -->
  <g transform="translate(256, 256)">
    <!-- Clean octagonal outline -->
    <polygon points="0,-200 141.42,-141.42 200,0 141.42,141.42 0,200 -141.42,141.42 -200,0 -141.42,-141.42" 
             fill="none" stroke="#1565c0" stroke-width="14" opacity="0.8"/>
    
    <!-- Middle ring - evenly spaced between outer and center -->
    <polygon points="0,-170 120.21,-120.21 170,0 120.21,120.21 0,170 -120.21,120.21 -170,0 -120.21,-120.21" 
             fill="none" stroke="#1565c0" stroke-width="12" opacity="0.5"/>
    
    <!-- Modern flat spokes -->
    <g stroke="#1565c0" stroke-width="14" opacity="0.7">
      <line x1="0" y1="0" x2="0" y2="-200"/>
      <line x1="0" y1="0" x2="141.42" y2="-141.42"/>
      <line x1="0" y1="0" x2="200" y2="0"/>
      <line x1="0" y1="0" x2="141.42" y2="141.42"/>
      <line x1="0" y1="0" x2="0" y2="200"/>
      <line x1="0" y1="0" x2="-141.42" y2="141.42"/>
      <line x1="0" y1="0" x2="-200" y2="0"/>
      <line x1="0" y1="0" x2="-141.42" y2="-141.42"/>
    </g>
    
    <!-- Central flat polygon with border -->
    <polygon points="0,-138 97.58,-97.58 138,0 97.58,97.58 0,138 -97.58,97.58 -138,0 -97.58,-97.58" 
             fill="url(#radarGradient)" stroke="#1565c0" stroke-width="14" opacity="0.9"/>
    
    <!-- Nodes at each octagonal point -->
    <g fill="#1a73e8">
      <circle cx="0" cy="-138" r="12"/>
      <circle cx="97.58" cy="-97.58" r="12"/>
      <circle cx="138" cy="0" r="12"/>
      <circle cx="97.58" cy="97.58" r="12"/>
      <circle cx="0" cy="138" r="12"/>
      <circle cx="-97.58" cy="97.58" r="12"/>
      <circle cx="-138" cy="0" r="12"/>
      <circle cx="-97.58" cy="-97.58" r="12"/>
    </g>
  </g>
</svg>