<!-- SimulateAI Professional Logo -->
<!-- Copyright 2025 Armando Sori - Licensed under Apache License, Version 2.0 -->
<svg width="320" height="80" viewBox="0 0 320 80" xmlns="http://www.w3.org/2000/svg" role="img" aria-label="SimulateAI Logo">
  <defs>
    <!-- Modern dark blue gradient for the spider chart -->
    <linearGradient id="radarGradient" x1="0%" y1="0%" x2="100%" y2="100%">
      <stop offset="0%" style="stop-color:#1976d2"/>
      <stop offset="50%" style="stop-color:#1565c0"/>
      <stop offset="100%" style="stop-color:#0d47a1"/>
    </linearGradient>
    
    <!-- Gradient for text -->
    <linearGradient id="textGradient" x1="0%" y1="0%" x2="100%" y2="0%">
      <stop offset="0%" style="stop-color:#1a73e8"/>
      <stop offset="50%" style="stop-color:#0056b3"/>
      <stop offset="100%" style="stop-color:#004494"/>
    </linearGradient>
    
    <!-- Drop shadow filter -->
    <filter id="dropShadow" x="-20%" y="-20%" width="140%" height="140%">
      <feDropShadow dx="2" dy="2" stdDeviation="2" flood-color="#000000" flood-opacity="0.1"/>
    </filter>
  </defs>
  
  <!-- Spider Chart Symbol -->
  <g transform="translate(40, 40)">
    <!-- Clean octagonal outline -->
    <polygon points="0,-28 19.8,-19.8 28,0 19.8,19.8 0,28 -19.8,19.8 -28,0 -19.8,-19.8" 
             fill="none" stroke="#1565c0" stroke-width="1.5" opacity="0.8"/>
    
    <!-- Middle ring - evenly spaced between outer and center -->
    <polygon points="0,-22 15.56,-15.56 22,0 15.56,15.56 0,22 -15.56,15.56 -22,0 -15.56,-15.56" 
             fill="none" stroke="#1565c0" stroke-width="1.2" opacity="0.5"/>
    
    <!-- Modern flat spokes -->
    <g stroke="#1565c0" stroke-width="1.5" opacity="0.7">
      <line x1="0" y1="0" x2="0" y2="-28"/>
      <line x1="0" y1="0" x2="19.8" y2="-19.8"/>
      <line x1="0" y1="0" x2="28" y2="0"/>
      <line x1="0" y1="0" x2="19.8" y2="19.8"/>
      <line x1="0" y1="0" x2="0" y2="28"/>
      <line x1="0" y1="0" x2="-19.8" y2="19.8"/>
      <line x1="0" y1="0" x2="-28" y2="0"/>
      <line x1="0" y1="0" x2="-19.8" y2="-19.8"/>
    </g>
    
    <!-- Central flat polygon with border -->
    <polygon points="0,-16 11.31,-11.31 16,0 11.31,11.31 0,16 -11.31,11.31 -16,0 -11.31,-11.31" 
             fill="url(#radarGradient)" stroke="#1565c0" stroke-width="1.5" opacity="0.9"/>
    
    <!-- Nodes at each octagonal point -->
    <g fill="#1a73e8">
      <circle cx="0" cy="-16" r="1.2"/>
      <circle cx="11.31" cy="-11.31" r="1.2"/>
      <circle cx="16" cy="0" r="1.2"/>
      <circle cx="11.31" cy="11.31" r="1.2"/>
      <circle cx="0" cy="16" r="1.2"/>
      <circle cx="-11.31" cy="11.31" r="1.2"/>
      <circle cx="-16" cy="0" r="1.2"/>
      <circle cx="-11.31" cy="-11.31" r="1.2"/>
    </g>
  </g>
  
  <!-- SimulateAI Text -->
  <g transform="translate(100, 40)">
    <!-- Main brand text -->
    <text x="0" y="8" font-family="'Segoe UI', -apple-system, BlinkMacSystemFont, system-ui, sans-serif" 
          font-size="28" font-weight="600" fill="url(#textGradient)" letter-spacing="-0.5px">
      Simulate<tspan fill="#1a73e8" font-weight="700">AI</tspan>
    </text>
    
    <!-- Tagline -->
    <text x="0" y="24" font-family="'Segoe UI', -apple-system, BlinkMacSystemFont, system-ui, sans-serif" 
          font-size="10" font-weight="400" fill="#666" letter-spacing="0.5px" opacity="0.8">
      AI ETHICS EDUCATION PLATFORM
    </text>
  </g>
</svg>
